<svg id="visual" viewBox="0 0 900 600" width="900" height="600" xmlns="http://www.w3.org/2000/svg" xmlns:xlink="http://www.w3.org/1999/xlink" version="1.1"><rect x="0" y="0" width="900" height="600" fill="#002233"></rect><path d="M0 551L6.3 550.5C12.7 550 25.3 549 37.8 545.7C50.3 542.3 62.7 536.7 75.2 533.5C87.7 530.3 100.3 529.7 112.8 530.3C125.3 531 137.7 533 150.2 533.5C162.7 534 175.3 533 187.8 532.7C200.3 532.3 212.7 532.7 225.2 534.7C237.7 536.7 250.3 540.3 262.8 540.8C275.3 541.3 287.7 538.7 300.2 536.3C312.7 534 325.3 532 337.8 535.3C350.3 538.7 362.7 547.3 375.2 550.5C387.7 553.7 400.3 551.3 412.8 548.8C425.3 546.3 437.7 543.7 450 541.5C462.3 539.3 474.7 537.7 487.2 536C499.7 534.3 512.3 532.7 525 533.3C537.7 534 550.3 537 562.8 535.8C575.3 534.7 587.7 529.3 600.2 528.2C612.7 527 625.3 530 637.8 532.5C650.3 535 662.7 537 675.2 539.2C687.7 541.3 700.3 543.7 712.8 543.2C725.3 542.7 737.7 539.3 750.2 538.2C762.7 537 775.3 538 787.8 539.2C800.3 540.3 812.7 541.7 825.2 542.5C837.7 543.3 850.3 543.7 862.8 543.5C875.3 543.3 887.7 542.7 893.8 542.3L900 542L900 601L893.8 601C887.7 601 875.3 601 862.8 601C850.3 601 837.7 601 825.2 601C812.7 601 800.3 601 787.8 601C775.3 601 762.7 601 750.2 601C737.7 601 725.3 601 712.8 601C700.3 601 687.7 601 675.2 601C662.7 601 650.3 601 637.8 601C625.3 601 612.7 601 600.2 601C587.7 601 575.3 601 562.8 601C550.3 601 537.7 601 525 601C512.3 601 499.7 601 487.2 601C474.7 601 462.3 601 450 601C437.7 601 425.3 601 412.8 601C400.3 601 387.7 601 375.2 601C362.7 601 350.3 601 337.8 601C325.3 601 312.7 601 300.2 601C287.7 601 275.3 601 262.8 601C250.3 601 237.7 601 225.2 601C212.7 601 200.3 601 187.8 601C175.3 601 162.7 601 150.2 601C137.7 601 125.3 601 112.8 601C100.3 601 87.7 601 75.2 601C62.7 601 50.3 601 37.8 601C25.3 601 12.7 601 6.3 601L0 601Z" fill="#0066FF" stroke-linecap="round" stroke-linejoin="miter"></path></svg>